<?xml version="1.0" encoding="UTF-8"?>
<svg version="1.1" xmlns="http://www.w3.org/2000/svg" width="500" height="500">
<path d="M0 0 C165 0 330 0 500 0 C500 165 500 330 500 500 C335 500 170 500 0 500 C0 335 0 170 0 0 Z " fill="#FEFEFE" transform="translate(0,0)"/>
<path d="M0 0 C14.85778593 9.52340369 28.25533632 16.89678834 46.46484375 14.83984375 C53.91334706 12.90617207 61.61770136 10.23194713 65.9765625 3.5078125 C66.36457031 2.68925781 66.75257813 1.87070312 67.15234375 1.02734375 C67.74595703 -0.18888672 67.74595703 -0.18888672 68.3515625 -1.4296875 C70.89800335 -7.67516875 71.81574191 -13.43355529 72.08984375 -20.09765625 C72.12851562 -20.87689453 72.1671875 -21.65613281 72.20703125 -22.45898438 C72.30028502 -24.35903004 72.38360337 -26.25955903 72.46484375 -28.16015625 C74.77728167 -28.18701037 77.08980645 -28.20648466 79.40234375 -28.22265625 C80.69011719 -28.23425781 81.97789062 -28.24585937 83.3046875 -28.2578125 C86.46484375 -28.16015625 86.46484375 -28.16015625 87.46484375 -27.16015625 C88.90939298 -18.39426465 88.6835808 -9.31653468 88.70507812 -0.45605469 C88.71474278 1.93981208 88.74584774 4.3348034 88.77734375 6.73046875 C88.87341563 20.71598253 86.7999888 33.95436149 83.15234375 47.46484375 C82.9399707 48.2527832 82.72759766 49.04072266 82.50878906 49.85253906 C75.76802439 74.06646151 62.53190678 96.9122581 40.15234375 109.73828125 C32.88068682 113.60481205 25.39671062 116.61190715 17.46484375 118.83984375 C16.50449219 119.13890625 15.54414063 119.43796875 14.5546875 119.74609375 C6.32865304 121.94785762 -1.67969922 122.12240392 -10.16015625 122.15234375 C-11.29203369 122.15782227 -12.42391113 122.16330078 -13.59008789 122.16894531 C-43.14723458 121.91975358 -64.50269526 107.23621074 -84.76171875 86.85009766 C-90.04966081 81.44461768 -94.91719163 75.83048777 -99.53515625 69.83984375 C-100.39970064 68.74113096 -101.2656646 67.64353416 -102.1328125 66.546875 C-105.87842659 61.80353833 -109.60841426 57.04878083 -113.29296875 52.2578125 C-129.44430912 30.3161701 -129.44430912 30.3161701 -152.53515625 17.83984375 C-161.57990729 17.11042834 -168.68001684 19.54382518 -175.74609375 25.23046875 C-181.10256014 30.04894944 -184.5156241 34.74645511 -184.91015625 42.08984375 C-184.60781687 53.50315527 -176.13985632 63.90318445 -168.25 71.46484375 C-134.94138455 100.60389151 -90.37317109 115.1699776 -48.515625 127.12109375 C2.50138611 141.69678343 60.94047561 165.66852421 88.54858398 214.07788086 C100.81408743 236.3053313 103.54613631 264.25892891 97.06005859 288.83154297 C86.27200283 325.231275 62.48248917 353.31509369 29.54833984 371.66479492 C17.79434247 378.01622054 5.55146689 382.1991762 -7.53515625 384.83984375 C-8.40350098 385.01789551 -9.2718457 385.19594727 -10.16650391 385.37939453 C-18.30374587 386.9023204 -26.26797408 387.22663058 -34.53515625 387.21484375 C-35.21324341 387.21396759 -35.89133057 387.21309143 -36.58996582 387.21218872 C-72.70385524 387.05898406 -101.41140066 370.2233926 -132.27294922 353.34228516 C-149.53023379 343.92186091 -163.59534201 337.59994643 -183.5859375 342.80859375 C-190.87065447 345.35583253 -195.18431234 349.64090173 -198.57421875 356.51171875 C-202.15921777 365.19732614 -202.10310639 374.57351112 -202.53515625 383.83984375 C-207.15515625 383.83984375 -211.77515625 383.83984375 -216.53515625 383.83984375 C-219.4824288 363.76154948 -220.11021685 342.89127062 -216.53515625 322.83984375 C-216.40625 322.11539062 -216.27734375 321.3909375 -216.14453125 320.64453125 C-212.43141256 300.6349472 -205.26780664 281.89510958 -192.53515625 265.83984375 C-191.93058594 265.06898438 -191.32601562 264.298125 -190.703125 263.50390625 C-176.67997887 246.67613089 -157.72093239 238.4111679 -136.53515625 234.83984375 C-134.92060547 234.55173828 -134.92060547 234.55173828 -133.2734375 234.2578125 C-127.96125236 233.66386912 -122.68922776 233.61535573 -117.34765625 233.58984375 C-115.75727539 233.55890625 -115.75727539 233.55890625 -114.13476562 233.52734375 C-87.72302168 233.39858449 -63.64990315 248.70955568 -45.33203125 266.6796875 C-43.81103871 268.19285107 -42.29939066 269.71430444 -40.79492188 271.24389648 C-39.28025958 272.78231723 -37.75252594 274.30679429 -36.22265625 275.83007812 C-29.89038713 282.18075315 -24.13574701 288.82741448 -18.53515625 295.83984375 C-16.43698068 298.34262536 -14.3047469 300.81428362 -12.16015625 303.27734375 C-11.61125732 303.90785645 -11.0623584 304.53836914 -10.49682617 305.18798828 C7.52900697 327.49863648 7.52900697 327.49863648 32.62109375 339.1484375 C40.31634691 339.57167642 46.10845185 337.07743835 52.46484375 332.83984375 C56.73737724 328.96112639 60.92607906 324.46710832 61.80078125 318.578125 C62.00062651 306.16773449 55.20627321 297.05743642 47.015625 288.1875 C30.63141711 272.27074454 9.82599299 261.70555524 -10.53515625 251.83984375 C-11.9128418 251.16791992 -11.9128418 251.16791992 -13.31835938 250.48242188 C-38.27361378 238.50016115 -65.34355366 230.45776422 -91.84765625 222.65234375 C-106.78598951 218.25130069 -121.18842242 212.92994417 -135.53515625 206.83984375 C-136.37981445 206.48180664 -137.22447266 206.12376953 -138.09472656 205.75488281 C-153.32277015 199.19382998 -168.03826804 190.7966225 -180.53515625 179.83984375 C-181.34984375 179.15664062 -182.16453125 178.4734375 -183.00390625 177.76953125 C-205.26477458 158.60045019 -216.83905694 133.07663218 -219.36962891 104.12792969 C-221.76517653 71.01425362 -211.56251109 41.67266956 -190.38671875 16.26171875 C-171.18758108 -5.77916854 -147.49683597 -19.22643074 -119.53515625 -27.16015625 C-118.50696777 -27.4526123 -118.50696777 -27.4526123 -117.45800781 -27.75097656 C-74.70740435 -39.15259085 -35.37384331 -22.74534796 0 0 Z " fill="#000000" transform="translate(309.53515625,54.16015625)"/>
</svg>
